<svg fill="none" xmlns="http://www.w3.org/2000/svg">
<path d="M8.59408 18.6998C8.73006 18.8213 8.9362 18.689 8.88515 18.5139L6.57563 10.5956C6.53263 10.4481 6.40227 10.3432 6.24909 10.332C5.87532 10.3045 5.50174 10.2738 5.12837 10.2399L2.03882 9.95902C1.89458 9.9459 1.79305 10.0972 1.86134 10.2249C3.53248 13.3506 5.93892 16.3288 8.59408 18.6998Z" fill="black"/>
<path d="M10.8599 20.3737C10.8785 20.4376 10.9334 20.4857 11 20.4857C11.0665 20.4857 11.1215 20.4376 11.1401 20.3737L13.967 10.6815C14.0023 10.5607 13.9081 10.4411 13.7824 10.4465C11.9283 10.5261 10.0717 10.5261 8.21759 10.4465C8.09188 10.4411 7.99775 10.5607 8.03298 10.6815L10.8599 20.3737Z" fill="black"/>
<path d="M13.1149 18.5139C13.0638 18.6889 13.2699 18.8213 13.4059 18.6998C16.0611 16.3288 18.4675 13.3506 20.1387 10.2249C20.2069 10.0972 20.1054 9.9459 19.9612 9.95902L16.8716 10.2399C16.4983 10.2738 16.1247 10.3045 15.7509 10.332C15.5977 10.3432 15.4674 10.4481 15.4244 10.5956L13.1149 18.5139Z" fill="black"/>
<path d="M19.9842 8.57625C20.1239 8.56355 20.1982 8.40506 20.1185 8.28959L17.1506 3.98603C16.8939 3.61388 16.4707 3.39166 16.0187 3.39166L13.7365 3.39166C13.6062 3.39166 13.5175 3.52374 13.5668 3.64434L15.6355 8.70743C15.6956 8.8546 15.8437 8.94636 16.0022 8.93383C16.2506 8.9142 16.4989 8.8931 16.7471 8.87053L19.9842 8.57625Z" fill="black"/>
<path d="M12.068 3.6173C12.011 3.48067 11.8775 3.39166 11.7295 3.39166L10.2705 3.39166C10.1225 3.39166 9.98896 3.48067 9.93203 3.6173L7.77094 8.80392C7.7222 8.92089 7.80401 9.05085 7.93059 9.05698C9.97566 9.15598 12.0243 9.15598 14.0694 9.05698C14.196 9.05085 14.2778 8.92089 14.2291 8.80391L12.068 3.6173Z" fill="black"/>
<path d="M8.43323 3.64434C8.4825 3.52374 8.39379 3.39166 8.26351 3.39166L5.98133 3.39166C5.52926 3.39166 5.10607 3.61388 4.84942 3.98603L1.88145 8.28959C1.80181 8.40506 1.87607 8.56355 2.01577 8.57625L5.25286 8.87053C5.50108 8.8931 5.7494 8.9142 5.9978 8.93383C6.15629 8.94636 6.30441 8.8546 6.36454 8.70743L8.43323 3.64434Z" fill="black"/>
</svg>
