<svg fill="none" xmlns="http://www.w3.org/2000/svg">
<path fill-rule="evenodd" clip-rule="evenodd" d="M11.3258 3.02661C11.1026 2.96327 10.8672 2.96333 10.644 3.02685C10.1687 3.1621 9.68897 3.28737 9.20756 3.41306C7.0592 3.97399 4.69374 4.59161 2.67025 6.24283L1.7162 7.02136C0.955428 7.64217 0.955828 8.85799 1.71726 9.47817L2.65588 10.2427C3.3493 10.8074 4.07198 11.2492 4.81257 11.6095L4.81257 15.8528C4.81257 16.8916 5.44986 17.8241 6.41775 18.2014L10.0844 19.6309C10.6733 19.8605 11.3269 19.8605 11.9157 19.6309L15.5824 18.2014C16.5503 17.8241 17.1876 16.8916 17.1876 15.8528V11.6171C17.9232 11.2588 18.6411 10.8192 19.3299 10.2572L19.4792 10.1353V14.6667C19.4792 15.0464 19.787 15.3542 20.1667 15.3542C20.5464 15.3542 20.8542 15.0464 20.8542 14.6667V8.24999C20.8541 7.79091 20.6636 7.3319 20.2829 7.02181L19.3443 6.25732C17.3061 4.59722 14.8412 3.95436 12.7594 3.41139C12.279 3.2861 11.8002 3.16123 11.3258 3.02661ZM7.60762 11.7445C7.25943 11.5931 6.8544 11.7526 6.70296 12.1008C6.55152 12.449 6.71102 12.854 7.0592 13.0054C8.23057 13.5149 9.4431 13.9317 10.6857 14.2507C10.9022 14.3062 11.1294 14.3062 11.3459 14.2504C12.5852 13.9315 13.7942 13.5146 14.9618 13.0051C15.3098 12.8533 15.4688 12.448 15.3169 12.1C15.1651 11.752 14.7599 11.593 14.4118 11.7449C13.315 12.2235 12.1794 12.6154 11.0154 12.9157C9.84782 12.6153 8.70844 12.2233 7.60762 11.7445Z" fill="black"/>
</svg>
