<svg fill="none" xmlns="http://www.w3.org/2000/svg">
<path fill-rule="evenodd" clip-rule="evenodd" d="M10.6439 3.02685C10.8671 2.96333 11.1026 2.96327 11.3257 3.02661C11.8001 3.16123 12.2789 3.2861 12.7593 3.41139C15.015 3.99972 17.306 4.59722 19.3442 6.25732L20.2828 7.02181C20.6635 7.3319 20.854 7.79091 20.8542 8.24999L20.8542 14.6667C20.8542 15.0464 20.5464 15.3542 20.1667 15.3542C19.787 15.3542 19.4792 15.0464 19.4792 14.6667L19.4792 10.1353L19.3298 10.2572C18.6236 10.8335 17.8867 11.281 17.1314 11.6443C17.1675 11.7278 17.1875 11.8199 17.1875 11.9167L17.1875 15.8528C17.1875 16.8916 16.5502 17.8241 15.5823 18.2014L11.9157 19.6309C11.3268 19.8605 10.6732 19.8605 10.0844 19.6309L6.41769 18.2014C5.4498 17.8241 4.81251 16.8916 4.81251 15.8528V11.9167C4.81251 11.8174 4.83352 11.7231 4.87134 11.638C4.11019 11.2725 3.36759 10.8224 2.65582 10.2427L1.7172 9.47817C0.955767 8.85799 0.955367 7.64217 1.71614 7.02136L2.67019 6.24283C4.69368 4.59161 6.96844 3.99767 9.2075 3.41306C9.68891 3.28737 10.1687 3.1621 10.6439 3.02685ZM19.4792 8.25054C19.4791 8.16795 19.4458 8.11342 19.4145 8.08793L18.4759 7.32344C16.5 5.95832 14.7394 5.35625 12.5033 4.76864C12.0116 4.63943 11.5059 4.50656 10.9853 4.35928C10.4624 4.50763 9.95492 4.64113 9.46157 4.77092C7.24333 5.3545 5.31047 5.863 3.53952 7.30814L2.58547 8.08667C2.55413 8.11225 2.52081 8.16686 2.52084 8.24944C2.52088 8.33203 2.55424 8.38656 2.58554 8.41205L3.52416 9.17654C5.31012 10.6312 7.26061 11.1437 9.49677 11.7313C9.9885 11.8606 10.4941 11.9934 11.0147 12.1407C11.5376 11.9924 12.045 11.8589 12.5383 11.7291C14.7566 11.1455 16.6896 10.637 18.4605 9.19184L19.4145 8.41331C19.4459 8.38776 19.4791 8.33298 19.4792 8.25054ZM12.7925 13.0869C13.8007 12.8237 14.8161 12.5586 15.8125 12.1959V15.8528C15.8125 16.325 15.5228 16.7488 15.0829 16.9203L11.4162 18.3498C11.1486 18.4542 10.8515 18.4542 10.5838 18.3498L6.91714 16.9203C6.47719 16.7488 6.18751 16.325 6.18751 15.8528V12.1881C7.19472 12.555 8.22131 12.8227 9.24072 13.0886C9.7211 13.2139 10.1999 13.3387 10.6743 13.4734C10.8975 13.5367 11.1329 13.5366 11.3561 13.4731C11.8313 13.3379 12.3111 13.2126 12.7925 13.0869Z" fill="black"/>
</svg>
