<svg fill="none" xmlns="http://www.w3.org/2000/svg">
<path fill-rule="evenodd" clip-rule="evenodd" d="M5.99059 2.97916C5.45423 2.97916 4.95336 3.24721 4.65584 3.69349L1.36572 8.62867C1.16429 8.93081 1.14021 9.3177 1.3026 9.64249C3.10303 13.2433 5.60512 16.448 8.6618 19.068L10.2666 20.4435C10.6886 20.8053 11.3114 20.8053 11.7334 20.4435L13.3382 19.068C16.3949 16.448 18.897 13.2433 20.6974 9.64249C20.8598 9.3177 20.8357 8.9308 20.6343 8.62867L17.3442 3.69349C17.0466 3.24721 16.5458 2.97916 16.0094 2.97916L5.99059 2.97916ZM5.79991 4.4562C5.84241 4.39245 5.91396 4.35416 5.99059 4.35416H8.13541L6.37989 8.56742C6.33945 8.66447 6.30893 8.76456 6.28836 8.86621C5.64318 8.81819 4.99855 8.76029 4.35469 8.69252L3.06612 8.55688L5.79991 4.4562ZM3.00543 9.93309C4.64939 12.9489 6.82019 15.6487 9.41711 17.9036L6.5521 10.2636C5.77079 10.2099 4.99022 10.142 4.21075 10.06L3.00543 9.93309ZM8.05274 10.3493L11 18.2087L13.9473 10.3493C11.9834 10.4386 10.0166 10.4386 8.05274 10.3493ZM15.4479 10.2636L12.5829 17.9036C15.1798 15.6487 17.3506 12.9489 18.9946 9.93309L17.7892 10.06C17.0098 10.142 16.2292 10.2099 15.4479 10.2636ZM18.9339 8.55688L17.6453 8.69252C17.0015 8.76029 16.3568 8.81819 15.7116 8.86621C15.6911 8.76456 15.6606 8.66447 15.6201 8.56742L13.8646 4.35416L16.0094 4.35416C16.086 4.35416 16.1576 4.39245 16.2001 4.4562L18.9339 8.55688ZM14.2924 8.95587C12.0989 9.06979 9.90106 9.06979 7.70761 8.95587L9.62499 4.35416L12.375 4.35416L14.2924 8.95587Z" fill="black"/>
</svg>
